# xmcd
#
# Track frame offsets:
#	182
#	16590
#	37070
#	50315
#	68607
#	89265
#	108367
#	120235
#	143392
#	154187
#	172487
#	182297
#	190462
#	206087
#	218862
#	231760
#	244260
#	257907
#	272607
#	285610
#
# Disc length: 3961 seconds
#
# Revision: 0
# Processed by: cddbd v1.5.1PL2 Copyright (c) Steve Scherf et al.
# Submitted via: dBpowerAMP V4.0
#
DISCID=190f7714
DTITLE=Tina Turner - Come Together
DYEAR=199
DGENRE=R&B
TTITLE0=Come Together
TTITLE1=I Got A Woman
TTITLE2=Nutbush City Limits
TTITLE3=River Deep, Mountain High
TTITLE4=Never Been To Spain
TTITLE5=Philadelphia Freedom
TTITLE6=Need Some Understanding
TTITLE7=A Fool For You
TTITLE8=Locomotion
TTITLE9=Don't Look Back
TTITLE10=Mojo Queen
TTITLE11=This Man's Crazy
TTITLE12=Another Day
TTITLE13=Keep On Using Me
TTITLE14=Put On Your Tight Pants
TTITLE15=Stagger Lee
TTITLE16=Twist And Shout
TTITLE17=Oh! My My
TTITLE18=I Wanna Take You Higher
TTITLE19=Poor Fool
EXTD=
EXTT0=
EXTT1=
EXTT2=
EXTT3=
EXTT4=
EXTT5=
EXTT6=
EXTT7=
EXTT8=
EXTT9=
EXTT10=
EXTT11=
EXTT12=
EXTT13=
EXTT14=
EXTT15=
EXTT16=
EXTT17=
EXTT18=
EXTT19=
PLAYORDER=
